<mxfile host="app.diagrams.net" agent="Mozilla/5.0 (Macintosh; Intel Mac OS X 10.15; rv:136.0) Gecko/20100101 Firefox/136.0" version="26.2.4">
  <diagram name="Page-1" id="ad52d381-51e7-2e0d-a935-2d0ddd2fd229">
    <mxGraphModel dx="2779" dy="1019" grid="1" gridSize="10" guides="1" tooltips="1" connect="1" arrows="1" fold="1" page="1" pageScale="1" pageWidth="1100" pageHeight="850" background="none" math="0" shadow="0">
      <root>
        <mxCell id="0" />
        <mxCell id="1" parent="0" />
        <mxCell id="Po-DwmXFVXXbOGFqL5Ki-6" value="&lt;div&gt;&lt;font style=&quot;font-size: 18px;&quot;&gt;&lt;b&gt;Environmental Data&lt;/b&gt;&lt;/font&gt;&lt;/div&gt;" style="ellipse;whiteSpace=wrap;html=1;rounded=1;shadow=1;comic=0;labelBackgroundColor=none;strokeWidth=2;fontFamily=Verdana;fontSize=12;align=center;fillColor=#B9E0A5;" vertex="1" parent="1">
          <mxGeometry x="290" y="150" width="240" height="240" as="geometry" />
        </mxCell>
        <mxCell id="Po-DwmXFVXXbOGFqL5Ki-7" value="&lt;b&gt;&lt;font style=&quot;font-size: 18px;&quot;&gt;Open Science Principles&lt;/font&gt;&lt;/b&gt;" style="ellipse;whiteSpace=wrap;html=1;rounded=1;shadow=1;comic=0;labelBackgroundColor=none;strokeWidth=2;fontFamily=Verdana;fontSize=12;align=center;" vertex="1" parent="1">
          <mxGeometry y="190" width="120" height="120" as="geometry" />
        </mxCell>
        <mxCell id="Po-DwmXFVXXbOGFqL5Ki-10" value="&lt;div&gt;&lt;br&gt;&lt;/div&gt;&lt;div&gt;&lt;br&gt;&lt;/div&gt;&lt;div&gt;&lt;br&gt;&lt;/div&gt;" style="text;html=1;align=center;verticalAlign=middle;resizable=0;points=[];autosize=1;strokeColor=none;fillColor=none;" vertex="1" parent="1">
          <mxGeometry x="720" y="365" width="20" height="60" as="geometry" />
        </mxCell>
        <mxCell id="Po-DwmXFVXXbOGFqL5Ki-11" value="&lt;div&gt;&lt;b&gt;Types of Environmental Data&lt;/b&gt;&lt;/div&gt;" style="swimlane;fontStyle=0;childLayout=stackLayout;horizontal=1;startSize=30;horizontalStack=0;resizeParent=1;resizeParentMax=0;resizeLast=0;collapsible=1;marginBottom=0;whiteSpace=wrap;html=1;" vertex="1" parent="1">
          <mxGeometry x="310" y="320" width="290" height="120" as="geometry" />
        </mxCell>
        <mxCell id="Po-DwmXFVXXbOGFqL5Ki-12" value="&lt;i&gt;Community data &lt;/i&gt;(generated through participation and Citizen Science Exercises)" style="text;strokeColor=none;fillColor=#F8FFF5;align=left;verticalAlign=middle;spacingLeft=4;spacingRight=4;overflow=hidden;points=[[0,0.5],[1,0.5]];portConstraint=eastwest;rotatable=0;whiteSpace=wrap;html=1;" vertex="1" parent="Po-DwmXFVXXbOGFqL5Ki-11">
          <mxGeometry y="30" width="290" height="30" as="geometry" />
        </mxCell>
        <mxCell id="Po-DwmXFVXXbOGFqL5Ki-13" value="&lt;div&gt;&lt;u&gt;&lt;i&gt;Regulatory Data&lt;/i&gt;&lt;/u&gt; (created when complying with laws and regulations)&lt;/div&gt;" style="text;strokeColor=none;fillColor=#F8FFF5;align=left;verticalAlign=middle;spacingLeft=4;spacingRight=4;overflow=hidden;points=[[0,0.5],[1,0.5]];portConstraint=eastwest;rotatable=0;whiteSpace=wrap;html=1;" vertex="1" parent="Po-DwmXFVXXbOGFqL5Ki-11">
          <mxGeometry y="60" width="290" height="30" as="geometry" />
        </mxCell>
        <mxCell id="Po-DwmXFVXXbOGFqL5Ki-14" value="&lt;div&gt;&lt;i&gt;Scientific Data&lt;/i&gt; (created by researchers)&lt;/div&gt;" style="text;strokeColor=none;fillColor=#F8FFF5;align=left;verticalAlign=middle;spacingLeft=4;spacingRight=4;overflow=hidden;points=[[0,0.5],[1,0.5]];portConstraint=eastwest;rotatable=0;whiteSpace=wrap;html=1;" vertex="1" parent="Po-DwmXFVXXbOGFqL5Ki-11">
          <mxGeometry y="90" width="290" height="30" as="geometry" />
        </mxCell>
        <mxCell id="Po-DwmXFVXXbOGFqL5Ki-17" value="&lt;h1 style=&quot;margin-top: 0px;&quot;&gt;Heading&lt;/h1&gt;&lt;p&gt;Lorem ipsum dolor sit amet, consectetur adipisicing elit, sed do eiusmod tempor incididunt ut labore et dolore magna aliqua.&lt;/p&gt;" style="text;html=1;whiteSpace=wrap;overflow=hidden;rounded=0;" vertex="1" parent="1">
          <mxGeometry x="880" y="100" width="180" height="120" as="geometry" />
        </mxCell>
        <mxCell id="Po-DwmXFVXXbOGFqL5Ki-18" value="Research that is: &lt;br&gt;1. Accesible&lt;br&gt;2. Transparent&lt;br&gt;3. Collaborative&lt;br&gt;4. Reusable &lt;br&gt;See Leonelli (2023)" style="rounded=1;whiteSpace=wrap;html=1;" vertex="1" parent="1">
          <mxGeometry x="10" y="290" width="150" height="110" as="geometry" />
        </mxCell>
      </root>
    </mxGraphModel>
  </diagram>
</mxfile>
